<?xml version="1.0" encoding="utf-8"?>
<!-- Generator: Adobe Illustrator 19.0.1, SVG Export Plug-In . SVG Version: 6.00 Build 0)  -->
<svg version="1.1" id="Layer_1" xmlns="http://www.w3.org/2000/svg" xmlns:xlink="http://www.w3.org/1999/xlink" x="0px" y="0px"
	 viewBox="0 0 792 199.1" style="enable-background:new 0 0 792 199.1;" xml:space="preserve">
<style type="text/css">
	.st0{fill:#6B2A7F;}
	.st1{fill:#A98AB9;}
	.st2{fill:#8B609E;}
	.st3{fill:#D0C2DB;}
	.st4{fill:#F47E22;}
	.st5{fill:#FED7B8;}
	.st6{fill:#F89D5B;}
	.st7{fill:#FBBA88;}
	.st8{fill:#444345;}
	.st9{fill:#67696B;}
	.st10{fill:#B6B8BA;}
	.st11{fill:#E4E5E6;}
</style>
<g>
	<path class="st0" d="M33.9,154.8v-8.2l9.6-1.1c2.1-0.3,2.4-0.8,2.4-3.1V56.8c0-2.3-0.3-2.9-2.4-3.1l-9.6-1.1v-8.4h76v25.2
		l-10.4-0.6l-2.1-11.7c-0.3-1.5-0.9-2-2.6-2H60v38h40.1v11H60v38.1c0,2.4,0.2,2.7,2.4,3.1l22.4,1.2v8.2H33.9z"/>
	<path class="st0" d="M118.5,154.8v-8.4l10.1-0.9c2.1-0.2,2.4-0.8,2.4-3.1V90.5c0-1.7-0.5-2.7-2-3.2l-8.7-2.9l1.4-8.1h23.2v66
		c0,2.4,0.2,2.7,2.4,3.1l9.8,1.1v8.2H118.5z M135.9,59.4c-6.3,0-9.9-3.5-9.9-9.8c0-6.1,3.7-9.6,9.9-9.6c6.3,0,9.8,3.5,9.8,9.6
		C145.7,55.9,142.2,59.4,135.9,59.4z"/>
	<path class="st0" d="M214,98.2l-1.8-9.5c-0.2-1.1-0.3-1.7-1.5-2c-2.1-0.8-6.7-1.7-11.9-1.7c-11.1,0-16.2,4.9-16.2,11.4
		c0,8.7,9.2,10.5,19.1,13.1c11.9,3.1,24.9,6.7,24.9,23.2c0,17.7-14.8,23.8-31,23.8c-12.4,0-24.9-3.5-27.6-5.2v-20.3l10.2,0.6
		l1.8,10.5c0.2,1.1,0.5,1.7,1.8,2.1c2,0.8,7.3,2.4,14.9,2.4c10.2,0,16.8-3.8,16.8-12c0-9.2-8.7-11.3-18.5-13.6
		c-11.9-2.7-25.3-5.8-25.3-22.6c0-17.4,14.6-23.8,30.4-23.8c11,0,20.9,2.9,24.1,4.3v19.7L214,98.2z"/>
	<path class="st0" d="M301.5,150.2c-5.8,3.8-16,6.4-26.1,6.4c-26.1,0-37.2-16-37.2-40.1c0-29,16.8-41.6,40-41.6
		c11.1,0,19.8,3.1,23.2,4.7v20.3l-10.2-0.5l-1.8-10.1c-0.2-1.1-0.5-1.7-1.8-2.1c-2.1-0.8-6.1-1.4-10.4-1.4
		c-13.6,0-24.4,7.9-24.4,29.7c0,21.4,10.1,29.6,24.9,29.6c7.6,0,15.3-2.4,19.5-5L301.5,150.2z"/>
	<path class="st0" d="M363.5,154.8l-1.4-9.9l-0.5-0.2c-7.3,6.9-15.9,11.9-27.6,11.9c-19.1,0-21.5-13.1-21.5-20.9
		c0-15.3,9.5-22.4,27.8-23.9l20.6-1.7V102c0-11.1-2.1-16.6-15.4-16.6c-9.3,0-16,0.3-16.2,11.7l-13.1-1.4c0-18.8,17.4-20.9,29.4-20.9
		c21.7,0,29,6.1,29,27.1v40.4c0,2.4,0.2,2.7,2.4,3.1l7.8,1.1v8.2H363.5z M360.9,119.7l-17.2,1.5c-13.1,1.2-16.8,5-16.8,13
		c0,8.2,3.5,11.6,10.7,11.6c9,0,18.6-7.3,23.3-11.7V119.7z"/>
	<path class="st0" d="M395.2,154.8v-8.4l9.5-0.9c2.1-0.2,2.4-0.8,2.4-3.1V53.8c0-1.7-0.5-2.7-2-3.2l-9.2-2.9l1.4-8.1H421v102.8
		c0,2.4,0.2,2.7,2.4,3.1l9.2,1.1v8.2H395.2z"/>
	<path class="st1" d="M526,154.8l-55.7-92.3v79.8c0,2.4,0.2,2.7,2.4,3.1l10.2,1.2v8.2h-37.1v-8.2l9.6-1.1c2.1-0.3,2.4-0.8,2.4-3.1
		V56.7c0-2.3-0.3-2.9-2.4-3.1l-9.6-1.1v-8.4h29.9l54.3,91.7V56.7c0-2.3-0.3-2.9-2.4-3.1l-9.6-1.1v-8.2h36.9v8.2l-10.2,1.2
		c-2.3,0.3-2.4,0.6-2.4,2.9v98.1H526z"/>
	<path class="st1" d="M558.3,115.3c0-23.9,12.2-40.4,38.3-40.4s36.1,16.6,36.1,39.5c0,25.6-11.6,42.2-37.7,42.2
		C568.5,156.6,558.3,139.5,558.3,115.3z M618.4,115.3c0-20-7.3-28.8-22.1-28.8c-14.9,0-23.6,8.8-23.6,29c0,20.3,7.8,30,22.9,30
		C610.3,145.5,618.4,136.2,618.4,115.3z"/>
	<path class="st1" d="M696,151.9c-6.1,2.4-13.4,4.7-21.2,4.7c-14.6,0-21.2-6.9-21.2-20.6V88.4c0-0.9,0-1.5-1.2-1.5h-11.1V78
		c11.9-1.5,15.3-6.3,17.2-21.8h9v18.6c0,0.9,0,1.5,1.2,1.5h22.4v10.5h-23.6v45c0,9.6,2.3,13.3,11,13.3c4.7,0,10.1-1.4,14.2-3.1
		L696,151.9z"/>
	<path class="st1" d="M767.9,149.7c-7.6,4.3-16.8,6.9-27.8,6.9c-27.6,0-36.6-18.1-36.6-40.9c0-27.9,15.6-40.9,34.8-40.9
		c18.6,0,31.4,10.1,31.4,36.5c0,2-0.2,5-0.3,7.6h-51.2c0.5,15.4,6.7,25.9,23.3,25.9c8.5,0,13.9-1.5,22-5.5L767.9,149.7z
		 M755.8,108.4C755.5,91,747.6,86,738.3,86c-10.2,0-18.8,5.5-20,22.4H755.8z"/>
</g>
</svg>
